<?xml version="1.0" standalone="no"?><!-- Generator: Gravit.io --><svg xmlns="http://www.w3.org/2000/svg" xmlns:xlink="http://www.w3.org/1999/xlink" style="isolation:isolate" viewBox="0 0 96 96" width="96" height="96"><defs><clipPath id="_clipPath_69UsvDVvQlNkry0pgllqh3SqdnjRw6cl"><rect width="96" height="96"/></clipPath></defs><g clip-path="url(#_clipPath_69UsvDVvQlNkry0pgllqh3SqdnjRw6cl)"><g><rect x="8" y="6" width="36" height="23.529" transform="matrix(1,0,0,1,0,0)" fill="rgb(52,152,219)"/><rect x="8" y="10.707" width="80" height="70.588" transform="matrix(1,0,0,1,0,0)" fill="rgb(52,152,219)"/><rect x="4" y="30" width="88" height="56" transform="matrix(1,0,0,1,0,0)" fill="rgb(52,152,219)"/></g><g><path d=" M 48 15 C 29.773 15 15 29.773 15 48 C 15 66.227 29.773 81 48 81 C 66.227 81 81 66.227 81 48 C 81 29.773 66.227 15 48 15 Z  M 48 37.688 C 53.68 37.688 58.313 42.32 58.313 48 C 58.313 53.68 53.68 58.313 48 58.313 C 42.32 58.313 37.688 53.68 37.688 48 C 37.688 42.32 42.32 37.688 48 37.688 Z  M 48 39.75 C 43.43 39.75 39.75 43.43 39.75 48 C 39.75 52.57 43.43 56.25 48 56.25 C 52.57 56.25 56.25 52.57 56.25 48 C 56.25 43.43 52.57 39.75 48 39.75 Z  M 48 42.844 C 50.852 42.844 53.156 45.148 53.156 48 C 53.156 50.852 50.852 53.156 48 53.156 C 45.148 53.156 42.844 50.852 42.844 48 C 42.844 45.148 45.148 42.844 48 42.844 Z " fill="rgb(238,232,213)"/><path d=" M 44.43 44.313 C 45.234 43.539 46.266 43.016 47.375 42.875 L 46.977 39.844 C 45.195 40.063 43.57 40.844 42.289 42.086 L 44.43 44.313 Z  M 40.852 40.625 C 42.453 39.086 44.523 38.094 46.734 37.813 L 43.867 15.297 C 36.773 16.203 30.141 19.367 25.031 24.32 L 40.852 40.625 Z " fill="rgb(101,123,131)" fill-opacity="0.254902"/><path d=" M 52.813 49.789 C 52.422 50.836 51.719 51.75 50.773 52.359 L 52.438 54.922 C 53.953 53.953 55.078 52.547 55.703 50.875 L 52.813 49.789 Z  M 57.625 51.578 C 56.844 53.656 55.406 55.445 53.531 56.648 L 65.82 75.734 C 71.836 71.859 76.453 66.148 78.938 59.477 L 57.625 51.578 Z " fill="rgb(255,254,251)" fill-opacity="0.462745"/><path d=" M 51.695 51.563 C 50.922 52.367 49.906 52.922 48.797 53.102 L 49.305 56.117 C 51.078 55.836 52.672 55 53.914 53.711 L 51.695 51.563 Z  M 55.398 55.125 C 53.852 56.719 51.82 57.781 49.617 58.141 L 53.258 80.539 C 60.32 79.391 66.836 76 71.773 70.875 L 55.398 55.125 Z " fill="rgb(101,123,131)" fill-opacity="0.254902"/><path d=" M 43.219 46.125 C 43.633 45.078 44.352 44.18 45.313 43.594 L 43.695 41 C 42.164 41.938 41.008 43.32 40.352 44.984 L 43.219 46.125 Z  M 38.445 44.242 C 39.266 42.18 40.734 40.414 42.633 39.242 L 30.703 19.938 C 24.625 23.695 19.898 29.32 17.289 35.945 L 38.445 44.242 Z " fill="rgb(255,254,251)" fill-opacity="0.427451"/><path d=" M 48 36 C 41.375 36 36 41.375 36 48 C 36 54.625 41.375 60 48 60 C 54.625 60 60 54.625 60 48 C 60 41.375 54.625 36 48 36 Z  M 48 39 C 52.969 39 57 43.031 57 48 C 57 52.969 52.969 57 48 57 C 43.031 57 39 52.969 39 48 C 39 43.031 43.031 39 48 39 Z " fill="rgb(101,123,131)"/></g><rect x="4" y="30" width="88" height="56" transform="matrix(1,0,0,1,0,0)" fill="rgb(52,152,219)"/><g><path d=" M 29.686 76.814 C 39.105 86.233 48.523 76.814 48.523 76.814 L 62.639 62.698 C 65.778 59.559 62.639 56.419 62.639 56.419 L 50.081 43.861 C 50.081 43.861 46.941 40.722 43.802 43.861 L 29.686 57.977 C 29.686 57.977 20.267 67.395 29.686 76.814 Z " fill="rgb(185,185,185)"/><path d=" M 31.481 78.159 L 57.942 51.698 L 62.651 56.407 L 38.136 80.922 C 37.126 80.796 34.395 81.523 31.481 78.159 Z " fill="rgb(255,255,255)" fill-opacity="0.396078"/><path d=" M 50.093 43.849 L 62.651 56.407 L 70.5 48.558 L 57.942 36 L 50.093 43.849 Z " fill="rgb(255,255,255)"/><path d=" M 56.372 50.128 L 61.081 54.837 L 68.93 46.988 L 64.221 42.279 L 56.372 50.128 Z " fill="rgb(255,255,255)" fill-opacity="0.309804"/><path d=" M 54.802 42.279 L 57.942 45.419 L 61.081 42.279 L 57.942 39.14 L 54.802 42.279 Z " fill="rgb(7,54,66)" fill-opacity="0.654902"/><path d=" M 61.081 48.558 L 64.221 51.698 L 67.36 48.558 L 64.221 45.419 L 61.081 48.558 Z " fill="rgb(7,54,66)" fill-opacity="0.654902"/></g></g></svg>